# xmcd
#
# Track frame offsets:
#	150
#	15588
#	36861
#	53223
#	65360
#	81724
#	101360
#	117860
#	130897
#	151133
#	168571
#	183609
#	197624
#	211279
#	224644
#	244826
#	258734
#	276190
#	288804
#	302128
#
# Disc length: 4425 seconds
#
# Revision: 1
# Processed by: cddbd v1.5.2PL0 Copyright (c) Steve Scherf et al.
# Submitted via: audiograbber 1.83.01
#
DISCID=2c114714
DTITLE=Various Artist - Get Down CD2
DYEAR=2007
DGENRE=Dance
TTITLE0=Calvin Harris - Aceptable In The 80's
TTITLE1=Groove Armada - Get Down (Calvin Harris Remix) (f. Stush And Red Rat)
TTITLE2=Kim Sozzi - Break Up (2-4 Grooves Remix)
TTITLE3=Dada - Lollipop (f. Snady Rivera and Trix)
TTITLE4=Mason vs Princess Sperstar - Pefect (Exceeder)
TTITLE5=The Similou - All This Love (The Drill Remix)
TTITLE6=Cedric Gervais - Spirit In My Life (f. Caroline)
TTITLE7=Eyerer and Chopstick - Make My Day (Daunting) (Vocal Club Mix) (f. Zdar)
TTITLE8=Kurd Maverick - Let's Work
TTITLE9=Nicole Otero - Sunshine Song (Thomas Gold Mix)
TTITLE10=Cascada - Miracle
TTITLE11=Ian Van Dahl - Castles In The Sky
TTITLE12=Jurgen Vries - The Theme
TTITLE13=Todd Terry All Stars - Get Down (Kenny Dope Original) (f. Kenny Dope, 
TTITLE13=DJ Sneak, Terry Junter and Tara Mcdonald)
TTITLE14=Wink - Higher State Of Consciousness (Tweekin Acid Funk)
TTITLE15=Mint Royale - Singin' In The Rain (Storm In A Double DD Cup Remix)
TTITLE16=De Souza - Guilty (Eddie Thoneick Remix) (f. Shena)
TTITLE17=Time Deluxe - Let The Beats Roll (f. Simon Franks)
TTITLE18=Ciara - Like A Boy (Soul Seekerz Remix)
TTITLE19=Amerie - Take Control (Tracy's Taking Contol Mix - Club)
EXTD=
EXTT0=
EXTT1=
EXTT2=
EXTT3=
EXTT4=
EXTT5=
EXTT6=
EXTT7=
EXTT8=
EXTT9=
EXTT10=
EXTT11=
EXTT12=
EXTT13=
EXTT14=
EXTT15=
EXTT16=
EXTT17=
EXTT18=
EXTT19=
PLAYORDER=
